<svg width="48" height="48" viewBox="0 0 48 48" fill="none" xmlns="http://www.w3.org/2000/svg">
<g clip-path="url(#clip0_11_46)">
<path d="M16 38V42M16 26V30M32 38V42M32 26V30M24 42V46M24 30V34M40 33.16C42.1025 32.2392 43.8242 30.6231 44.8762 28.5831C45.9281 26.543 46.2463 24.2032 45.7772 21.9564C45.3081 19.7095 44.0804 17.6924 42.3001 16.2437C40.5198 14.7949 38.2953 14.0027 36 14H33.48C32.846 11.545 31.6377 9.2759 29.9546 7.3796C28.2715 5.48331 26.1619 4.01416 23.7995 3.09325C21.4372 2.17234 18.8898 1.82604 16.3674 2.08289C13.8449 2.33974 11.4196 3.1924 9.29139 4.57057C7.16316 5.94874 5.39292 7.81297 4.12661 10.0096C2.86029 12.2062 2.13414 14.6723 2.00802 17.2047C1.8819 19.7371 2.35941 22.2631 3.40121 24.5747C4.443 26.8863 6.01924 28.9172 8 30.5" stroke="#256c99" stroke-width="4" stroke-linecap="round" stroke-linejoin="round"/>
</g>
<defs>
<clipPath id="clip0_11_46">
<rect width="48" height="48" fill="white"/>
</clipPath>
</defs>
</svg>
