<svg width="48" height="48" viewBox="0 0 48 48" fill="none" xmlns="http://www.w3.org/2000/svg">
<g clip-path="url(#clip0_11_31)">
<path d="M36 20H33.48C32.7317 17.102 31.1856 14.472 29.0173 12.4088C26.849 10.3456 24.1454 8.93198 21.2138 8.32855C18.2822 7.72512 15.2402 7.95608 12.4333 8.99518C9.62642 10.0343 7.16727 11.8399 5.3353 14.2068C3.50332 16.5737 2.37197 19.407 2.06981 22.3847C1.76764 25.3625 2.30677 28.3653 3.62594 31.0519C4.94511 33.7386 6.99142 36.0014 9.53235 37.5831C12.0733 39.1649 15.0069 40.0022 18 40H36C38.6522 40 41.1957 38.9464 43.0711 37.0711C44.9464 35.1957 46 32.6522 46 30C46 27.3478 44.9464 24.8043 43.0711 22.9289C41.1957 21.0536 38.6522 20 36 20Z" stroke="#1E1E1E" stroke-width="4" stroke-linecap="round" stroke-linejoin="round"/>
</g>
<defs>
<clipPath id="clip0_11_31">
<rect width="48" height="48" fill="white"/>
</clipPath>
</defs>
</svg>
